<?xml version="1.0" standalone="no"?>
<!DOCTYPE svg PUBLIC "-//W3C//DTD SVG 20010904//EN"
 "http://www.w3.org/TR/2001/REC-SVG-20010904/DTD/svg10.dtd">
<svg version="1.0" xmlns="http://www.w3.org/2000/svg"
 width="260.000000pt" height="260.000000pt" viewBox="0 0 260.000000 260.000000"
 preserveAspectRatio="xMidYMid meet">
<metadata>
Created by potrace 1.11, written by Peter Selinger 2001-2013
</metadata>
<g transform="translate(0.000000,260.000000) scale(0.100000,-0.100000)"
fill="#000000" stroke="none">
<path d="M1120 2507 l-156 -92 1 -273 c0 -151 -2 -275 -5 -277 -3 -2 -108 57
-235 131 -126 73 -235 133 -242 134 -9 0 -294 -160 -312 -176 -5 -4 -4 -375 1
-379 2 -1 105 -62 230 -134 125 -73 230 -137 233 -142 4 -5 -4 -13 -17 -18
-13 -5 -77 -41 -143 -81 -66 -40 -127 -75 -135 -79 -9 -3 -52 -28 -98 -55
l-82 -50 0 -186 0 -187 122 -74 c150 -91 158 -95 183 -109 18 -10 52 7 247
124 125 75 232 137 239 138 10 2 13 -56 14 -267 3 -300 2 -285 13 -285 5 0 76
-39 158 -86 l149 -86 52 29 c29 15 53 31 53 36 0 4 4 7 8 7 10 0 174 91 194
107 11 9 13 66 13 282 0 149 2 271 5 271 3 0 21 -10 40 -22 19 -11 51 -30 70
-41 19 -11 111 -64 203 -119 l168 -100 87 54 c48 30 120 75 160 99 l72 44 -2
188 -3 189 -237 136 c-131 75 -238 139 -237 142 0 5 407 245 448 265 23 11 23
8 22 192 0 57 -3 107 -6 113 -3 5 -2 10 3 10 5 0 6 17 3 37 -6 38 -25 52 -206
153 -27 15 -64 36 -81 46 -34 19 -36 18 -109 -26 -27 -16 -57 -33 -65 -37 -8
-3 -37 -21 -65 -38 -27 -17 -57 -34 -65 -38 -8 -4 -33 -18 -55 -32 -22 -14
-47 -28 -55 -32 -8 -3 -27 -15 -42 -25 -54 -37 -53 -41 -53 253 l0 272 -35 22
c-19 12 -55 33 -80 47 -25 14 -81 46 -125 72 -44 25 -82 46 -85 45 -3 0 -75
-42 -160 -92z"/>
</g>
</svg>
